<svg xmlns="http://www.w3.org/2000/svg" fill="none" viewBox="0 0 736 96"><path fill="#fff" fill-rule="evenodd" d="M312 80V70h-12.998A24.892 24.892 0 0 0 304 55V41c0-13.807-11.193-25-25-25h-46c-13.807 0-25 11.193-25 25v14c0 13.807 11.193 25 25 25h79Zm-79-54c-8.284 0-15 6.716-15 15v14c0 8.284 6.716 15 15 15h46.019C287.294 69.99 294 63.278 294 55V41c0-8.284-6.716-15-15-15h-46Z" clip-rule="evenodd"/><path fill="#fff" d="M330 16v39c0 8.284 6.716 15 15 15h37V16h10v64h-47c-13.807 0-25-11.193-25-25V16h10Z"/><path fill="#fff" fill-rule="evenodd" d="M463 16h-39v10h39c7.948 0 14.453 6.182 14.967 14H428c-11.046 0-20 8.954-20 20s8.954 20 20 20h60V41c0-13.807-11.193-25-25-25Zm-35 34h50v20h-50c-5.523 0-10-4.477-10-10s4.477-10 10-10Z" clip-rule="evenodd"/><path fill="#fff" d="M504 41c0-13.807 11.193-25 25-25h45v10h-45c-8.284 0-15 6.716-15 15v39h-10V41ZM592 80V16h-10v64h10ZM618 41c0-8.284 6.716-15 15-15h55V16h-55c-13.807 0-25 11.193-25 25v14c0 13.807 11.193 25 25 25h55V70h-55c-8.284 0-15-6.716-15-15V41ZM120 16l44.313 15.783c15.583 5.172 15.583 27.263 0 32.434L120 80V69.338l41.161-14.66c6.416-2.13 6.416-11.226 0-13.356L126.518 28.75 104 80 59.687 64.218c-15.583-5.172-15.583-27.263 0-32.435L104 16v10.662l-41.161 14.66c-6.416 2.13-6.416 11.226 0 13.356L97.482 67.25 120 16ZM720.598 17.55h-4.917l-.045-2.736h4.578a5.4 5.4 0 0 0 1.759-.321c.556-.2 1-.485 1.331-.855.346-.385.518-.855.518-1.41 0-.713-.127-1.276-.383-1.69-.256-.413-.684-.712-1.285-.897-.587-.186-1.391-.278-2.413-.278h-3.067v15.412h-3.18V6.648h6.247c1.488 0 2.773.2 3.856.598 1.082.4 1.917 1.005 2.503 1.817.586.798.88 1.81.88 3.036 0 .77-.188 1.46-.564 2.073-.376.613-.925 1.14-1.646 1.582-.722.442-1.602.798-2.639 1.069-.045 0-.098.05-.158.15-.045.085-.09.128-.135.128-.256.142-.421.25-.496.32a.4.4 0 0 1-.203.107c-.06.015-.241.022-.541.022Zm-.226 0 .451-1.924c2.33 0 3.916.47 4.758 1.41.857.927 1.286 2.103 1.286 3.528v1.154c0 .527.03 1.033.09 1.518.06.47.158.87.293 1.197v.342h-3.27c-.15-.37-.24-.898-.27-1.582a77.485 77.485 0 0 1-.023-1.496v-1.112c0-1.04-.255-1.803-.767-2.287-.496-.499-1.345-.748-2.548-.748Zm-13.779-1.582c0 1.895.346 3.662 1.038 5.301a13.253 13.253 0 0 0 2.886 4.297 13.39 13.39 0 0 0 4.285 2.864c1.624.684 3.36 1.026 5.209 1.026 1.849 0 3.578-.342 5.187-1.026a13.13 13.13 0 0 0 4.262-2.864 13.272 13.272 0 0 0 2.887-4.297c.691-1.639 1.037-3.406 1.037-5.301 0-1.91-.346-3.677-1.037-5.301a13.088 13.088 0 0 0-2.887-4.254 12.852 12.852 0 0 0-4.262-2.843c-1.609-.684-3.338-1.026-5.187-1.026-1.849 0-3.585.342-5.209 1.026a13.103 13.103 0 0 0-4.285 2.843 13.07 13.07 0 0 0-2.886 4.254c-.692 1.624-1.038 3.391-1.038 5.3Zm-2.593 0c0-2.266.413-4.368 1.24-6.306a15.51 15.51 0 0 1 3.451-5.066 15.81 15.81 0 0 1 5.096-3.378C715.727.406 717.801 0 720.011 0s4.277.406 6.202 1.218a15.492 15.492 0 0 1 5.096 3.378 15.51 15.51 0 0 1 3.451 5.066c.827 1.938 1.24 4.04 1.24 6.306s-.413 4.368-1.24 6.306a16 16 0 0 1-3.451 5.109 15.777 15.777 0 0 1-5.096 3.399c-1.925.812-3.992 1.218-6.202 1.218s-4.284-.406-6.224-1.218a16.106 16.106 0 0 1-5.096-3.4 16 16 0 0 1-3.451-5.108c-.827-1.938-1.24-4.04-1.24-6.306Z"/></svg>