<svg xmlns="http://www.w3.org/2000/svg" width="592" height="88" fill="none"><g clip-path="url(#a)"><path fill="#000" d="M0 0h592v88H0z"/><path fill="#fff" fill-opacity=".1" d="M98.163 21.851C92.88 16.588 85.283 16 76 16c-9.295 0-16.903.595-22.184 5.872C48.536 27.147 48 34.742 48 44.027c0 9.286.536 16.884 5.818 22.16C59.098 71.467 66.706 72 76 72c9.294 0 16.9-.534 22.18-5.812 5.283-5.278 5.82-12.875 5.82-22.16 0-9.297-.543-16.901-5.837-22.177Z"/><path fill="#fff" d="m68.328 41.466-5.032-7.733c3.135-3.899 7.837-6.046 12.645-6.066 2.786-.02 5.631.692 8.22 2.187a16.353 16.353 0 0 1 6.415 6.784l-13.522-.711c-3.826-.224-7.468 1.93-8.726 5.539Zm2.167 2.536A5.504 5.504 0 0 0 76 49.508a5.504 5.504 0 0 0 5.506-5.506A5.504 5.504 0 0 0 76 38.495a5.5 5.5 0 0 0-5.506 5.507Zm20.74-5.875-9.201.474c2.496 2.918 2.535 7.126.434 10.354L75.085 60.31a16.266 16.266 0 0 0 9.076-2.167c7.073-4.084 9.938-12.646 7.073-20.016Zm-22.762 9.01L62.328 35.05A16.322 16.322 0 0 0 59.667 44c0 8.168 5.98 14.932 13.798 16.13l4.195-8.22c-3.793.712-7.455-1.37-9.187-4.774Z"/><path fill="#fff" fill-opacity=".1" d="M147.163 21.851C141.88 16.588 134.283 16 125 16c-9.295 0-16.903.595-22.184 5.872C97.536 27.147 97 34.742 97 44.027c0 9.286.536 16.884 5.818 22.16C108.099 71.467 115.706 72 125 72c9.294 0 16.9-.534 22.181-5.812C152.463 60.91 153 53.313 153 44.028c0-9.297-.543-16.901-5.837-22.177Z"/><path fill="#fff" d="m126.231 45.231-2.462-2.462-4.696 7.159 7.158-4.697ZM125 27.667c-9.023 0-16.333 7.31-16.333 16.333s7.31 16.334 16.333 16.334 16.334-7.31 16.334-16.334c0-9.023-7.311-16.333-16.334-16.333Zm10.265 11.512.973-.404a.53.53 0 0 1 .729.488.537.537 0 0 1-.155.372.527.527 0 0 1-.171.115l-.971.402a.526.526 0 0 1-.405-.973Zm-6.416-5.848.403-.973a.523.523 0 0 1 .688-.284.528.528 0 0 1 .285.689l-.404.973a.525.525 0 1 1-.972-.405ZM125 31.091a.528.528 0 0 1 .527.528v1.053a.526.526 0 0 1-.899.373.527.527 0 0 1-.155-.373V31.62a.527.527 0 0 1 .527-.527Zm-4.939.983a.524.524 0 0 1 .689.285l.402.972a.528.528 0 1 1-.973.403l-.404-.973a.528.528 0 0 1 .286-.687Zm-4.188 2.799a.528.528 0 0 1 .745 0l.743.745a.527.527 0 0 1-.373.897.524.524 0 0 1-.372-.154l-.745-.745a.524.524 0 0 1 .002-.743ZM112.092 44a.526.526 0 0 1 .527-.527h1.053a.528.528 0 0 1 0 1.054h-1.053a.528.528 0 0 1-.527-.527Zm2.644 4.822-.973.404a.53.53 0 0 1-.689-.69.534.534 0 0 1 .286-.285l.971-.402a.527.527 0 0 1 .405.973Zm.285-8.957a.522.522 0 0 1-.488.328.526.526 0 0 1-.202-.04l-.973-.404a.526.526 0 0 1 .405-.973l.973.403a.528.528 0 0 1 .285.688v-.002Zm6.131 14.805-.403.973a.517.517 0 0 1-.285.285.531.531 0 0 1-.575-.114.533.533 0 0 1-.114-.574l.404-.973a.53.53 0 0 1 .284-.293.526.526 0 0 1 .689.696Zm4.375 1.712a.526.526 0 0 1-.899.373.527.527 0 0 1-.155-.373v-1.054a.527.527 0 0 1 1.054 0v1.054Zm4.413-.456a.53.53 0 0 1-.689-.285l-.402-.971a.526.526 0 1 1 .973-.403l.404.973a.529.529 0 0 1-.286.686Zm4.187-2.798a.528.528 0 0 1-.745 0l-.742-.745a.527.527 0 0 1 .745-.743l.745.745a.528.528 0 0 1-.002.743h-.001Zm-7.134-7.135-11.586 7.6 7.601-11.585 11.586-7.6-7.601 11.585Zm9.933 2.947a.525.525 0 0 1-.688.285l-.973-.404a.525.525 0 0 1 0-.974.53.53 0 0 1 .405.002l.973.403a.526.526 0 0 1 .283.688Zm.456-4.413h-1.054a.527.527 0 0 1 0-1.054h1.054a.528.528 0 0 1 0 1.054Z"/><path fill="#fff" fill-opacity=".1" d="M196.163 21.851C190.88 16.588 183.283 16 174 16c-9.295 0-16.903.595-22.184 5.872-5.28 5.275-5.816 12.87-5.816 22.155 0 9.286.536 16.884 5.818 22.16C157.099 71.467 164.706 72 174 72c9.294 0 16.9-.534 22.181-5.812C201.463 60.91 202 53.313 202 44.028c0-9.297-.543-16.901-5.837-22.177Z"/><path fill="#fff" d="M188.885 35.997c-2.704-5.289-8.542-8.33-14.891-8.33-7.831 0-14.389 5.511-15.973 12.886 1.713-3.062 5.681-5.212 9.847-5.212 5.223 0 7.978 3.222 8.055 3.304 1.449 1.568 2.174 3.319 2.174 5.473 0 .685-.35 1.7-.995 2.54-.104.132-.421.32-.421.725 0 .333.216.653.602.922 1.835 1.276 5.295 1.107 5.304 1.107a7.606 7.606 0 0 0 3.862-1.066 7.833 7.833 0 0 0 3.884-6.746c.033-2.86-1.021-4.762-1.448-5.603Zm-17.733 22.47a10.204 10.204 0 0 1-3.073-2.964c-2.17-3.123-2.256-6.296-1.324-8.957a10.24 10.24 0 0 1 3.753-5.197c3.888-2.977 6.249-.372 6.527-.066a5.313 5.313 0 0 0-.322-.668c-.609-1.049-1.581-2.398-3.727-3.524-2.221-1.165-4.651-1.224-5.115-1.224-2.551 0-5.133.856-7.085 2.35-1.302.995-2.811 2.669-3.086 4.927-.071.81-.181 4.135 1.515 7.788a16.336 16.336 0 0 0 16.36 9.327c-2.512-.436-4.339-1.755-4.423-1.792Zm16.519-6.476a.513.513 0 0 0-.522-.015c-.435.227-.884.428-1.344.6a13.023 13.023 0 0 1-4.583.825c-6.04 0-11.301-4.153-11.301-9.484a4.025 4.025 0 0 1 .43-1.761 11.103 11.103 0 0 0-2.554 3.293c-.983 1.934-2.174 5.804.878 9.988.429.586 1.516 1.975 3.69 3.139 1.553.833 3.228 1.291 4.724 1.291 2.315 0 7.605-2.202 10.74-7.17a.501.501 0 0 0 .068-.386.513.513 0 0 0-.226-.32ZM230.734 36.016c-1.093 0-2.073.198-2.937.593a5.906 5.906 0 0 0-2.172 1.72c-.594.739-1.047 1.64-1.359 2.702-.313 1.052-.469 2.24-.469 3.563 0 1.77.25 3.297.75 4.578.5 1.27 1.26 2.25 2.281 2.937 1.021.677 2.313 1.016 3.875 1.016.969 0 1.912-.094 2.828-.281a25.254 25.254 0 0 0 2.844-.766v3.188c-.927.364-1.865.63-2.813.797-.947.166-2.041.25-3.281.25-2.333 0-4.271-.485-5.812-1.454-1.531-.968-2.677-2.333-3.438-4.093-.75-1.76-1.125-3.823-1.125-6.188 0-1.729.24-3.312.719-4.75.479-1.437 1.177-2.677 2.094-3.719.916-1.052 2.047-1.859 3.39-2.422 1.355-.572 2.901-.859 4.641-.859 1.146 0 2.271.13 3.375.39 1.115.25 2.146.61 3.094 1.079l-1.313 3.094a19.193 19.193 0 0 0-2.484-.97 8.941 8.941 0 0 0-2.688-.405Zm16.954 2.359c2.187 0 3.838.484 4.953 1.453 1.125.969 1.687 2.48 1.687 4.531V56h-2.609l-.703-2.453h-.125a8.938 8.938 0 0 1-1.516 1.547 5.294 5.294 0 0 1-1.813.906c-.677.208-1.505.313-2.484.313-1.031 0-1.953-.188-2.766-.563a4.392 4.392 0 0 1-1.921-1.75c-.469-.781-.703-1.77-.703-2.969 0-1.781.661-3.12 1.984-4.015 1.333-.896 3.344-1.391 6.031-1.485l3-.11v-.905c0-1.198-.281-2.052-.844-2.563-.552-.51-1.333-.766-2.343-.766-.865 0-1.704.126-2.516.376s-1.604.557-2.375.921l-1.187-2.593c.843-.448 1.802-.813 2.874-1.094a13.384 13.384 0 0 1 3.376-.422Zm3 9.36-2.235.078c-1.833.062-3.12.374-3.859.937-.74.563-1.11 1.333-1.11 2.313 0 .854.256 1.479.766 1.874.51.386 1.182.579 2.016.579 1.27 0 2.323-.36 3.156-1.078.844-.73 1.266-1.797 1.266-3.204v-1.5Zm-4.047-16.25c.281.479.625 1.01 1.031 1.593.406.583.828 1.151 1.266 1.703.437.552.822 1.026 1.156 1.422v.406h-2.453a24.732 24.732 0 0 1-1.329-1.062c-.489-.427-.989-.87-1.5-1.328-.5-.469-.963-.912-1.39-1.328-.417-.427-.75-.792-1-1.094v-.313h4.219Zm16.5 7.218V56h-3.672V38.703h3.672Zm-1.813-6.625c.563 0 1.047.151 1.453.453.417.302.625.823.625 1.563 0 .729-.208 1.25-.625 1.562-.406.302-.89.453-1.453.453-.583 0-1.078-.15-1.484-.453-.396-.312-.594-.833-.594-1.562 0-.74.198-1.26.594-1.563.406-.302.901-.453 1.484-.453Zm21.203 24.234c-2.062 0-3.719-.729-4.969-2.187-1.239-1.469-1.859-3.62-1.859-6.453 0-2.917.63-5.104 1.891-6.563 1.271-1.468 2.942-2.203 5.015-2.203.865 0 1.625.115 2.282.344.656.23 1.224.542 1.703.938.479.395.885.843 1.218 1.343h.172a27.775 27.775 0 0 1-.187-1.547 16.953 16.953 0 0 1-.094-1.64v-1.422h-5.922V34.39h5.922v-2.703h3.688v2.703h2.421v2.53h-2.421V56H288.5l-.641-2.36h-.171c-.313.5-.704.954-1.172 1.36a5.532 5.532 0 0 1-1.688.953c-.656.24-1.422.36-2.297.36Zm1.047-2.984c1.563 0 2.667-.432 3.313-1.297.645-.864.974-2.166.984-3.906v-.469c0-1.864-.313-3.286-.937-4.265-.615-.98-1.75-1.47-3.407-1.47-1.323 0-2.333.506-3.031 1.517-.688 1.01-1.031 2.432-1.031 4.265 0 1.823.343 3.219 1.031 4.188.698.958 1.724 1.437 3.078 1.437Zm20.141-14.953c2.187 0 3.838.484 4.953 1.453 1.125.969 1.687 2.48 1.687 4.531V56h-2.609l-.703-2.453h-.125a8.938 8.938 0 0 1-1.516 1.547 5.298 5.298 0 0 1-1.812.906c-.677.208-1.505.313-2.485.313-1.031 0-1.953-.188-2.765-.563a4.394 4.394 0 0 1-1.922-1.75c-.469-.781-.703-1.77-.703-2.969 0-1.781.661-3.12 1.984-4.015 1.333-.896 3.344-1.391 6.031-1.485l3-.11v-.905c0-1.198-.281-2.052-.843-2.563-.552-.51-1.334-.766-2.344-.766-.865 0-1.703.126-2.516.376-.812.25-1.604.557-2.375.921l-1.187-2.593c.843-.448 1.802-.813 2.875-1.094a13.37 13.37 0 0 1 3.375-.422Zm3 9.36-2.235.078c-1.833.062-3.119.374-3.859.937-.74.563-1.109 1.333-1.109 2.313 0 .854.255 1.479.765 1.874.511.386 1.183.579 2.016.579 1.271 0 2.323-.36 3.156-1.078.844-.73 1.266-1.797 1.266-3.204v-1.5Zm2.484-15.876c-.073.938-.344 1.766-.812 2.485a4.882 4.882 0 0 1-1.907 1.672c-.802.395-1.75.593-2.843.593-1.688 0-2.995-.427-3.922-1.28-.927-.865-1.433-2.022-1.516-3.47h2.141c.062.584.234 1.021.515 1.313.292.292.677.484 1.157.578.489.094 1.046.14 1.672.14.531 0 1.036-.051 1.515-.156.49-.114.896-.317 1.219-.609.333-.292.531-.714.594-1.266h2.187Zm-6.125 30.235c-.583 0-1.078-.157-1.484-.469-.396-.302-.594-.818-.594-1.547 0-.74.198-1.26.594-1.562.406-.302.901-.453 1.484-.453.573 0 1.063.15 1.469.453.406.302.609.823.609 1.562 0 .73-.203 1.245-.609 1.547-.406.313-.896.469-1.469.469Zm18.86-8.75c.479 0 .953-.042 1.421-.125.469-.094.896-.203 1.282-.328v2.78c-.407.178-.933.329-1.579.454-.645.125-1.317.188-2.015.188-.979 0-1.859-.162-2.641-.485-.781-.333-1.401-.9-1.859-1.703-.458-.802-.688-1.911-.688-3.328V41.5H313.5v-1.64l2.531-1.297 1.203-3.704h2.313v3.844h4.953V41.5h-4.953v9.25c0 .875.219 1.526.656 1.953.438.427 1.016.64 1.735.64Zm21.5 2.968c-1.636 0-3.053-.317-4.25-.953-1.198-.635-2.12-1.609-2.766-2.922-.646-1.312-.969-2.979-.969-5 0-2.104.354-3.822 1.063-5.156.708-1.333 1.687-2.317 2.937-2.953 1.261-.635 2.703-.953 4.328-.953 1.031 0 1.964.104 2.797.313.844.197 1.557.442 2.141.734l-1.094 2.937c-.635-.26-1.286-.479-1.953-.656a7.48 7.48 0 0 0-1.922-.266c-1.01 0-1.854.224-2.531.672-.667.448-1.167 1.115-1.5 2-.323.886-.485 1.985-.485 3.297 0 1.271.167 2.344.5 3.219.334.865.828 1.52 1.485 1.969.656.437 1.463.656 2.422.656.948 0 1.797-.115 2.547-.344a11.26 11.26 0 0 0 2.124-.89v3.187a7.867 7.867 0 0 1-2.109.828c-.75.188-1.672.282-2.765.282Zm12.609-24.624v6.109c0 .635-.021 1.255-.063 1.86a20.369 20.369 0 0 1-.109 1.406h.203a5 5 0 0 1 1.344-1.485 5.718 5.718 0 0 1 1.781-.89 7.433 7.433 0 0 1 2.125-.297c1.323 0 2.448.224 3.375.672a4.543 4.543 0 0 1 2.125 2.046c.5.927.75 2.13.75 3.61V56h-3.672V45.406c0-1.343-.276-2.349-.828-3.015-.552-.677-1.406-1.016-2.562-1.016-1.115 0-2 .234-2.657.703-.645.458-1.109 1.14-1.39 2.047-.281.896-.422 1.99-.422 3.281V56h-3.672V31.687h3.672Zm31.984 15.625c0 1.437-.187 2.713-.562 3.828-.375 1.114-.922 2.057-1.641 2.828a7.229 7.229 0 0 1-2.594 1.75c-1.01.396-2.151.593-3.422.593-1.187 0-2.276-.197-3.265-.593a7.445 7.445 0 0 1-2.578-1.75c-.719-.771-1.276-1.714-1.672-2.828-.396-1.115-.594-2.391-.594-3.828 0-1.907.328-3.521.985-4.844.666-1.334 1.614-2.35 2.843-3.047 1.229-.698 2.693-1.047 4.391-1.047 1.594 0 3 .349 4.219 1.047 1.218.698 2.171 1.713 2.859 3.047.688 1.333 1.031 2.948 1.031 4.843Zm-12.547 0c0 1.26.151 2.338.454 3.234.312.896.791 1.583 1.437 2.062.646.47 1.479.703 2.5.703s1.854-.234 2.5-.703c.646-.479 1.12-1.166 1.422-2.062.302-.896.453-1.974.453-3.234s-.151-2.329-.453-3.204c-.302-.885-.776-1.557-1.422-2.015-.646-.469-1.484-.703-2.516-.703-1.52 0-2.63.51-3.328 1.53-.698 1.022-1.047 2.485-1.047 4.392ZM415.703 56h-17v-3.14l10.953-15.704H399v-4h16.406v3.125L404.469 52h11.234v4Zm10.422-17.828c2.344 0 4.141.51 5.391 1.531s1.875 2.573 1.875 4.656V56h-3.329l-.921-2.375h-.125c-.5.625-1.011 1.135-1.532 1.531a5.24 5.24 0 0 1-1.796.875c-.678.188-1.5.282-2.469.282-1.031 0-1.959-.198-2.781-.594a4.41 4.41 0 0 1-1.922-1.813c-.469-.823-.704-1.864-.704-3.125 0-1.854.652-3.218 1.954-4.093 1.302-.886 3.255-1.376 5.859-1.47l3.031-.093v-.766c0-.916-.239-1.588-.718-2.015-.48-.427-1.146-.64-2-.64-.844 0-1.672.119-2.485.358-.812.24-1.625.542-2.437.907l-1.578-3.219a13.54 13.54 0 0 1 3.109-1.156 15.08 15.08 0 0 1 3.578-.422Zm2.531 9.734-1.844.063c-1.541.041-2.614.317-3.218.828-.594.51-.891 1.182-.891 2.016 0 .729.214 1.25.641 1.562.427.302.984.453 1.672.453 1.02 0 1.88-.302 2.578-.906.708-.604 1.062-1.464 1.062-2.578v-1.438ZM443.078 56h-4.766V31.687h4.766V56Zm20.891-8.766c0 1.459-.198 2.75-.594 3.875-.385 1.125-.953 2.078-1.703 2.86a7.169 7.169 0 0 1-2.688 1.75c-1.041.396-2.218.593-3.531.593-1.229 0-2.359-.197-3.391-.593a7.538 7.538 0 0 1-2.671-1.75c-.75-.782-1.334-1.735-1.75-2.86-.407-1.125-.61-2.416-.61-3.875 0-1.937.344-3.578 1.031-4.922.688-1.343 1.667-2.364 2.938-3.062 1.271-.698 2.786-1.047 4.547-1.047 1.635 0 3.083.35 4.344 1.047 1.27.698 2.265 1.719 2.984 3.063.729 1.343 1.094 2.984 1.094 4.921Zm-12.078 0c0 1.146.125 2.11.375 2.891.25.781.64 1.37 1.172 1.766.531.395 1.223.593 2.078.593.843 0 1.526-.198 2.046-.593.532-.396.917-.985 1.157-1.766.25-.781.375-1.745.375-2.89 0-1.157-.125-2.115-.375-2.876-.24-.77-.625-1.349-1.157-1.734-.531-.385-1.223-.578-2.078-.578-1.26 0-2.177.432-2.75 1.297-.562.864-.843 2.161-.843 3.89Zm52.765-14.078L498.844 56h-5.516l-3.094-12c-.062-.23-.145-.578-.25-1.047-.104-.469-.213-.979-.328-1.531-.114-.563-.218-1.089-.312-1.578-.084-.5-.141-.896-.172-1.188-.031.292-.094.683-.188 1.172a44.74 44.74 0 0 1-.296 1.563 61.537 61.537 0 0 1-.313 1.547c-.104.479-.187.843-.25 1.093L485.047 56h-5.5l-5.828-22.844h4.765l2.922 12.469c.084.375.177.823.282 1.344.114.52.223 1.067.328 1.64.114.563.213 1.11.296 1.641.094.52.162.974.204 1.36.052-.396.119-.855.203-1.376.083-.53.172-1.067.265-1.609.105-.552.209-1.063.313-1.531.104-.469.198-.85.281-1.14l3.328-12.798h4.578l3.328 12.797c.073.281.157.662.25 1.14a52.912 52.912 0 0 1 .594 3.156c.094.522.162.975.203 1.36.073-.52.172-1.15.297-1.89.136-.75.276-1.495.422-2.235.156-.74.292-1.359.406-1.859l2.907-12.469h4.765Zm9.703 5.047c1.615 0 3.006.313 4.172.938a6.402 6.402 0 0 1 2.703 2.687c.636 1.177.954 2.615.954 4.313v2.312h-11.266c.052 1.344.453 2.401 1.203 3.172.76.76 1.813 1.14 3.156 1.14 1.115 0 2.136-.114 3.063-.343.927-.23 1.88-.573 2.859-1.031v3.687c-.864.427-1.771.74-2.719.938-.937.198-2.078.297-3.422.297-1.75 0-3.302-.323-4.656-.97-1.344-.645-2.401-1.63-3.172-2.952-.76-1.323-1.14-2.99-1.14-5 0-2.042.344-3.74 1.031-5.094.698-1.365 1.667-2.386 2.906-3.063 1.24-.687 2.683-1.03 4.328-1.03Zm.032 3.39c-.927 0-1.698.298-2.313.891-.604.594-.953 1.526-1.047 2.797h6.688c-.011-.708-.141-1.338-.391-1.89a2.93 2.93 0 0 0-1.094-1.313c-.479-.323-1.093-.484-1.843-.484Zm16.437-9.906v5.657c0 .656-.021 1.307-.062 1.953a16.76 16.76 0 0 1-.125 1.5h.187c.458-.719 1.083-1.328 1.875-1.828.792-.51 1.818-.766 3.078-.766 1.959 0 3.547.766 4.766 2.297 1.219 1.531 1.828 3.776 1.828 6.734 0 1.99-.281 3.662-.844 5.016-.562 1.344-1.349 2.36-2.359 3.047-1.011.677-2.182 1.016-3.516 1.016-1.281 0-2.291-.23-3.031-.688-.74-.458-1.339-.974-1.797-1.547h-.328L529.703 56h-3.641V31.687h4.766Zm3.422 10.329c-.833 0-1.495.172-1.984.515-.49.344-.849.86-1.078 1.547-.219.688-.339 1.557-.36 2.61v.515c0 1.698.25 3 .75 3.906.5.896 1.412 1.344 2.734 1.344.98 0 1.756-.453 2.329-1.36.583-.906.875-2.213.875-3.921 0-1.708-.292-2.995-.875-3.86-.584-.864-1.381-1.296-2.391-1.296Z"/></g><defs><clipPath id="a"><path fill="#fff" d="M0 0h592v88H0z"/></clipPath></defs></svg>