<svg xmlns="http://www.w3.org/2000/svg" width="592" height="88" fill="none"><g clip-path="url(#a)"><path fill="#000" d="M0 0h592v88H0z"/><path fill="#fff" fill-opacity=".1" d="M137.163 21.851C131.88 16.588 124.283 16 115 16c-9.295 0-16.903.595-22.184 5.872C87.536 27.147 87 34.742 87 44.027c0 9.286.536 16.884 5.818 22.16C98.098 71.467 105.706 72 115 72c9.294 0 16.9-.534 22.181-5.812C142.463 60.91 143 53.313 143 44.028c0-9.297-.543-16.901-5.837-22.177Z"/><path fill="#fff" d="m98.67 32.164 13.387-1.844v12.935H98.669v-11.09Zm0 23.67 13.387 1.844V44.903H98.669v10.93Zm14.86 2.04 17.806 2.458V44.903H113.53v12.972Zm0-27.751v13.132h17.806v-15.59l-17.806 2.458Z"/><path fill="#fff" fill-opacity=".1" d="M186.163 21.851C180.88 16.588 173.283 16 164 16c-9.295 0-16.903.595-22.184 5.872-5.28 5.275-5.816 12.87-5.816 22.155 0 9.286.536 16.884 5.818 22.16C147.099 71.467 154.706 72 164 72c9.294 0 16.9-.534 22.181-5.812C191.463 60.91 192 53.313 192 44.028c0-9.297-.543-16.901-5.837-22.177Z"/><path fill="#fff" d="M173.266 44.928c-.015-2.676 1.201-4.697 3.661-6.184-1.377-1.962-3.456-3.042-6.202-3.253-2.6-.204-5.441 1.51-6.481 1.51-1.098 0-3.617-1.437-5.594-1.437-4.086.066-8.429 3.245-8.429 9.714 0 1.91.352 3.885 1.055 5.922.937 2.676 4.32 9.24 7.85 9.13 1.845-.043 3.148-1.305 5.55-1.305 2.329 0 3.537 1.306 5.595 1.306 3.558-.051 6.619-6.017 7.513-8.7-4.775-2.24-4.518-6.564-4.518-6.703Zm-4.145-11.975c1.999-2.363 1.816-4.514 1.757-5.288-1.764.103-3.807 1.197-4.972 2.546-1.281 1.444-2.035 3.23-1.874 5.243 1.911.146 3.654-.831 5.089-2.501ZM220.734 36.016c-1.093 0-2.073.198-2.937.593a5.906 5.906 0 0 0-2.172 1.72c-.594.739-1.047 1.64-1.359 2.702-.313 1.052-.469 2.24-.469 3.563 0 1.77.25 3.297.75 4.578.5 1.27 1.26 2.25 2.281 2.937 1.021.677 2.313 1.016 3.875 1.016.969 0 1.912-.094 2.828-.281a25.254 25.254 0 0 0 2.844-.766v3.188c-.927.364-1.865.63-2.813.797-.947.166-2.041.25-3.281.25-2.333 0-4.271-.485-5.812-1.454-1.531-.968-2.677-2.333-3.438-4.093-.75-1.76-1.125-3.823-1.125-6.188 0-1.729.24-3.312.719-4.75.479-1.437 1.177-2.677 2.094-3.719.916-1.052 2.047-1.859 3.39-2.422 1.355-.572 2.901-.859 4.641-.859 1.146 0 2.271.13 3.375.39 1.115.25 2.146.61 3.094 1.079l-1.313 3.094a19.193 19.193 0 0 0-2.484-.97 8.941 8.941 0 0 0-2.688-.405Zm16.954 2.359c2.187 0 3.838.484 4.953 1.453 1.125.969 1.687 2.48 1.687 4.531V56h-2.609l-.703-2.453h-.125a8.938 8.938 0 0 1-1.516 1.547 5.294 5.294 0 0 1-1.813.906c-.677.208-1.505.313-2.484.313-1.031 0-1.953-.188-2.766-.563a4.392 4.392 0 0 1-1.921-1.75c-.469-.781-.703-1.77-.703-2.969 0-1.781.661-3.12 1.984-4.015 1.333-.896 3.344-1.391 6.031-1.485l3-.11v-.905c0-1.198-.281-2.052-.844-2.563-.552-.51-1.333-.766-2.343-.766-.865 0-1.704.126-2.516.376s-1.604.557-2.375.921l-1.187-2.593c.843-.448 1.802-.813 2.874-1.094a13.384 13.384 0 0 1 3.376-.422Zm3 9.36-2.235.078c-1.833.062-3.12.374-3.859.937-.74.563-1.11 1.333-1.11 2.313 0 .854.256 1.479.766 1.874.51.386 1.182.579 2.016.579 1.27 0 2.323-.36 3.156-1.078.844-.73 1.266-1.797 1.266-3.204v-1.5Zm-4.047-16.25c.281.479.625 1.01 1.031 1.593.406.583.828 1.151 1.266 1.703.437.552.822 1.026 1.156 1.422v.406h-2.453a24.732 24.732 0 0 1-1.329-1.062c-.489-.427-.989-.87-1.5-1.328-.5-.469-.963-.912-1.39-1.328-.417-.427-.75-.792-1-1.094v-.313h4.219Zm16.5 7.218V56h-3.672V38.703h3.672Zm-1.813-6.625c.563 0 1.047.151 1.453.453.417.302.625.823.625 1.563 0 .729-.208 1.25-.625 1.562-.406.302-.89.453-1.453.453-.583 0-1.078-.15-1.484-.453-.396-.312-.594-.833-.594-1.562 0-.74.198-1.26.594-1.563.406-.302.901-.453 1.484-.453Zm21.203 24.234c-2.062 0-3.719-.729-4.969-2.187-1.239-1.469-1.859-3.62-1.859-6.453 0-2.917.63-5.104 1.891-6.563 1.271-1.468 2.942-2.203 5.015-2.203.865 0 1.625.115 2.282.344.656.23 1.224.542 1.703.938.479.395.885.843 1.218 1.343h.172a27.775 27.775 0 0 1-.187-1.547 16.953 16.953 0 0 1-.094-1.64v-1.422h-5.922V34.39h5.922v-2.703h3.688v2.703h2.421v2.53h-2.421V56H278.5l-.641-2.36h-.171c-.313.5-.704.954-1.172 1.36a5.532 5.532 0 0 1-1.688.953c-.656.24-1.422.36-2.297.36Zm1.047-2.984c1.563 0 2.667-.432 3.313-1.297.645-.864.974-2.166.984-3.906v-.469c0-1.864-.313-3.286-.937-4.265-.615-.98-1.75-1.47-3.407-1.47-1.323 0-2.333.506-3.031 1.517-.688 1.01-1.031 2.432-1.031 4.265 0 1.823.343 3.219 1.031 4.188.698.958 1.724 1.437 3.078 1.437Zm20.141-14.953c2.187 0 3.838.484 4.953 1.453 1.125.969 1.687 2.48 1.687 4.531V56h-2.609l-.703-2.453h-.125a8.938 8.938 0 0 1-1.516 1.547 5.298 5.298 0 0 1-1.812.906c-.677.208-1.505.313-2.485.313-1.031 0-1.953-.188-2.765-.563a4.394 4.394 0 0 1-1.922-1.75c-.469-.781-.703-1.77-.703-2.969 0-1.781.661-3.12 1.984-4.015 1.333-.896 3.344-1.391 6.031-1.485l3-.11v-.905c0-1.198-.281-2.052-.843-2.563-.552-.51-1.334-.766-2.344-.766-.865 0-1.703.126-2.516.376-.812.25-1.604.557-2.375.921l-1.187-2.593c.843-.448 1.802-.813 2.875-1.094a13.37 13.37 0 0 1 3.375-.422Zm3 9.36-2.235.078c-1.833.062-3.119.374-3.859.937-.74.563-1.109 1.333-1.109 2.313 0 .854.255 1.479.765 1.874.511.386 1.183.579 2.016.579 1.271 0 2.323-.36 3.156-1.078.844-.73 1.266-1.797 1.266-3.204v-1.5Zm2.484-15.876c-.073.938-.344 1.766-.812 2.485a4.882 4.882 0 0 1-1.907 1.672c-.802.395-1.75.593-2.843.593-1.688 0-2.995-.427-3.922-1.28-.927-.865-1.433-2.022-1.516-3.47h2.141c.062.584.234 1.021.515 1.313.292.292.677.484 1.157.578.489.094 1.046.14 1.672.14.531 0 1.036-.051 1.515-.156.49-.114.896-.317 1.219-.609.333-.292.531-.714.594-1.266h2.187Zm-6.125 30.235c-.583 0-1.078-.157-1.484-.469-.396-.302-.594-.818-.594-1.547 0-.74.198-1.26.594-1.562.406-.302.901-.453 1.484-.453.573 0 1.063.15 1.469.453.406.302.609.823.609 1.562 0 .73-.203 1.245-.609 1.547-.406.313-.896.469-1.469.469Zm18.86-8.75c.479 0 .953-.042 1.421-.125.469-.094.896-.203 1.282-.328v2.78c-.407.178-.933.329-1.579.454-.645.125-1.317.188-2.015.188-.979 0-1.859-.162-2.641-.485-.781-.333-1.401-.9-1.859-1.703-.458-.802-.688-1.911-.688-3.328V41.5H303.5v-1.64l2.531-1.297 1.203-3.704h2.313v3.844h4.953V41.5h-4.953v9.25c0 .875.219 1.526.656 1.953.438.427 1.016.64 1.735.64Zm21.5 2.968c-1.636 0-3.053-.317-4.25-.953-1.198-.635-2.12-1.609-2.766-2.922-.646-1.312-.969-2.979-.969-5 0-2.104.354-3.822 1.063-5.156.708-1.333 1.687-2.317 2.937-2.953 1.261-.635 2.703-.953 4.328-.953 1.031 0 1.964.104 2.797.313.844.197 1.557.442 2.141.734l-1.094 2.937c-.635-.26-1.286-.479-1.953-.656a7.48 7.48 0 0 0-1.922-.266c-1.01 0-1.854.224-2.531.672-.667.448-1.167 1.115-1.5 2-.323.886-.485 1.985-.485 3.297 0 1.271.167 2.344.5 3.219.334.865.828 1.52 1.485 1.969.656.437 1.463.656 2.422.656.948 0 1.797-.115 2.547-.344a11.26 11.26 0 0 0 2.124-.89v3.187a7.867 7.867 0 0 1-2.109.828c-.75.188-1.672.282-2.765.282Zm12.609-24.624v6.109c0 .635-.021 1.255-.063 1.86a20.369 20.369 0 0 1-.109 1.406h.203a5 5 0 0 1 1.344-1.485 5.718 5.718 0 0 1 1.781-.89 7.433 7.433 0 0 1 2.125-.297c1.323 0 2.448.224 3.375.672a4.543 4.543 0 0 1 2.125 2.046c.5.927.75 2.13.75 3.61V56h-3.672V45.406c0-1.343-.276-2.349-.828-3.015-.552-.677-1.406-1.016-2.562-1.016-1.115 0-2 .234-2.657.703-.645.458-1.109 1.14-1.39 2.047-.281.896-.422 1.99-.422 3.281V56h-3.672V31.687h3.672Zm31.984 15.625c0 1.437-.187 2.713-.562 3.828-.375 1.114-.922 2.057-1.641 2.828a7.229 7.229 0 0 1-2.594 1.75c-1.01.396-2.151.593-3.422.593-1.187 0-2.276-.197-3.265-.593a7.445 7.445 0 0 1-2.578-1.75c-.719-.771-1.276-1.714-1.672-2.828-.396-1.115-.594-2.391-.594-3.828 0-1.907.328-3.521.985-4.844.666-1.334 1.614-2.35 2.843-3.047 1.229-.698 2.693-1.047 4.391-1.047 1.594 0 3 .349 4.219 1.047 1.218.698 2.171 1.713 2.859 3.047.688 1.333 1.031 2.948 1.031 4.843Zm-12.547 0c0 1.26.151 2.338.454 3.234.312.896.791 1.583 1.437 2.062.646.47 1.479.703 2.5.703s1.854-.234 2.5-.703c.646-.479 1.12-1.166 1.422-2.062.302-.896.453-1.974.453-3.234s-.151-2.329-.453-3.204c-.302-.885-.776-1.557-1.422-2.015-.646-.469-1.484-.703-2.516-.703-1.52 0-2.63.51-3.328 1.53-.698 1.022-1.047 2.485-1.047 4.392ZM405.703 56h-17v-3.14l10.953-15.704H389v-4h16.406v3.125L394.469 52h11.234v4Zm10.422-17.828c2.344 0 4.141.51 5.391 1.531s1.875 2.573 1.875 4.656V56h-3.329l-.921-2.375h-.125c-.5.625-1.011 1.135-1.532 1.531a5.24 5.24 0 0 1-1.796.875c-.678.188-1.5.282-2.469.282-1.031 0-1.959-.198-2.781-.594a4.41 4.41 0 0 1-1.922-1.813c-.469-.823-.704-1.864-.704-3.125 0-1.854.652-3.218 1.954-4.093 1.302-.886 3.255-1.376 5.859-1.47l3.031-.093v-.766c0-.916-.239-1.588-.718-2.015-.48-.427-1.146-.64-2-.64-.844 0-1.672.119-2.485.358-.812.24-1.625.542-2.437.907l-1.578-3.219a13.54 13.54 0 0 1 3.109-1.156 15.08 15.08 0 0 1 3.578-.422Zm2.531 9.734-1.844.063c-1.541.041-2.614.317-3.218.828-.594.51-.891 1.182-.891 2.016 0 .729.214 1.25.641 1.562.427.302.984.453 1.672.453 1.02 0 1.88-.302 2.578-.906.708-.604 1.062-1.464 1.062-2.578v-1.438ZM433.078 56h-4.766V31.687h4.766V56Zm20.891-8.766c0 1.459-.198 2.75-.594 3.875-.385 1.125-.953 2.078-1.703 2.86a7.169 7.169 0 0 1-2.688 1.75c-1.041.396-2.218.593-3.531.593-1.229 0-2.359-.197-3.391-.593a7.538 7.538 0 0 1-2.671-1.75c-.75-.782-1.334-1.735-1.75-2.86-.407-1.125-.61-2.416-.61-3.875 0-1.937.344-3.578 1.031-4.922.688-1.343 1.667-2.364 2.938-3.062 1.271-.698 2.786-1.047 4.547-1.047 1.635 0 3.083.35 4.344 1.047 1.27.698 2.265 1.719 2.984 3.063.729 1.343 1.094 2.984 1.094 4.921Zm-12.078 0c0 1.146.125 2.11.375 2.891.25.781.64 1.37 1.172 1.766.531.395 1.223.593 2.078.593.843 0 1.526-.198 2.046-.593.532-.396.917-.985 1.157-1.766.25-.781.375-1.745.375-2.89 0-1.157-.125-2.115-.375-2.876-.24-.77-.625-1.349-1.157-1.734-.531-.385-1.223-.578-2.078-.578-1.26 0-2.177.432-2.75 1.297-.562.864-.843 2.161-.843 3.89Zm32-14.078c2.948 0 5.099.636 6.453 1.907 1.354 1.26 2.031 3 2.031 5.218 0 1-.151 1.959-.453 2.875a6.31 6.31 0 0 1-1.484 2.422c-.678.708-1.584 1.271-2.719 1.688-1.136.406-2.537.609-4.203.609h-2.078V56h-4.844V33.156h7.297Zm-.25 3.969h-2.203v6.781h1.593c.907 0 1.693-.12 2.36-.36.666-.239 1.182-.614 1.547-1.124.364-.51.546-1.167.546-1.969 0-1.125-.312-1.958-.937-2.5-.625-.552-1.594-.828-2.906-.828Zm22.75-.266c-.927 0-1.75.183-2.469.547a4.915 4.915 0 0 0-1.797 1.547c-.479.677-.844 1.495-1.094 2.453-.25.959-.375 2.037-.375 3.235 0 1.614.198 2.994.594 4.14.406 1.136 1.031 2.005 1.875 2.61.844.593 1.932.89 3.266.89.927 0 1.854-.104 2.781-.312a26.658 26.658 0 0 0 3.047-.89v4.062a14.68 14.68 0 0 1-2.985.89c-.979.188-2.078.282-3.296.282-2.355 0-4.292-.485-5.813-1.454-1.51-.979-2.63-2.343-3.359-4.093-.73-1.76-1.094-3.813-1.094-6.157 0-1.729.234-3.312.703-4.75.469-1.437 1.156-2.682 2.063-3.734.906-1.052 2.026-1.865 3.359-2.438 1.333-.572 2.864-.859 4.594-.859 1.135 0 2.27.146 3.406.438 1.146.28 2.239.672 3.281 1.172l-1.562 3.937a26.018 26.018 0 0 0-2.578-1.063 7.695 7.695 0 0 0-2.547-.453Z"/></g><defs><clipPath id="a"><path fill="#fff" d="M0 0h592v88H0z"/></clipPath></defs></svg>